<svg width="158" height="15" viewBox="0 0 158 15" fill="none" xmlns="http://www.w3.org/2000/svg">
<circle cx="7.5" cy="7.5" r="6.74" fill="#EBEBEB" stroke="#2C2C2C" stroke-width="1.52"/>
<circle cx="7.33238" cy="4.41616" r="1.62151" fill="#2C2C2C"/>
<circle cx="4.24022" cy="7.50829" r="1.62151" fill="#2C2C2C"/>
<circle cx="7.37011" cy="7.54599" r="0.905028" fill="#2C2C2C"/>
<circle cx="10.4246" cy="7.50829" r="1.62151" fill="#2C2C2C"/>
<circle cx="7.33238" cy="10.7513" r="1.62151" fill="#2C2C2C"/>
<path d="M27.6641 12H26.1289V6.99609L23.4277 11.748C23.3613 11.8691 23.2676 11.9609 23.1465 12.0234C23.0293 12.0859 22.9023 12.1172 22.7656 12.1172C22.6328 12.1172 22.5078 12.0859 22.3906 12.0234C22.2773 11.9609 22.1875 11.8691 22.1211 11.748L19.4082 6.99609V12H17.8848V4.24805C17.8848 4.07227 17.9355 3.91602 18.0371 3.7793C18.1426 3.64258 18.2793 3.55078 18.4473 3.50391C18.5293 3.48438 18.6113 3.47852 18.6934 3.48633C18.7754 3.49023 18.8535 3.50781 18.9277 3.53906C19.0059 3.56641 19.0762 3.60742 19.1387 3.66211C19.2012 3.71289 19.2539 3.77539 19.2969 3.84961L22.7656 9.87891L26.2344 3.84961C26.3242 3.70117 26.4473 3.5957 26.6035 3.5332C26.7637 3.4707 26.9297 3.46094 27.1016 3.50391C27.2656 3.55078 27.4004 3.64258 27.5059 3.7793C27.6113 3.91602 27.6641 4.07227 27.6641 4.24805V12ZM36.1133 9.86133C36.1133 10.123 36.0801 10.3594 36.0137 10.5703C35.9473 10.7773 35.8594 10.9609 35.75 11.1211C35.6406 11.2773 35.5137 11.4121 35.3691 11.5254C35.2246 11.6348 35.0723 11.7246 34.9121 11.7949C34.7559 11.8652 34.5957 11.918 34.4316 11.9531C34.2715 11.9844 34.1191 12 33.9746 12H31.2266C31.0156 12 30.7852 11.9629 30.5352 11.8887C30.2852 11.8145 30.0527 11.6934 29.8379 11.5254C29.627 11.3535 29.4492 11.1328 29.3047 10.8633C29.1641 10.5898 29.0938 10.2559 29.0938 9.86133V7.79883C29.0938 7.4082 29.1641 7.07812 29.3047 6.80859C29.4492 6.53516 29.627 6.31445 29.8379 6.14648C30.0527 5.97461 30.2852 5.85156 30.5352 5.77734C30.7852 5.70312 31.0156 5.66602 31.2266 5.66602H33.9746C34.3652 5.66602 34.6973 5.73633 34.9707 5.87695C35.2441 6.01758 35.4648 6.19531 35.6328 6.41016C35.8008 6.62109 35.9219 6.85156 35.9961 7.10156C36.0742 7.35156 36.1133 7.58398 36.1133 7.79883V9.86133ZM34.5898 7.81055C34.5898 7.59961 34.5371 7.44336 34.4316 7.3418C34.3262 7.24023 34.1738 7.18945 33.9746 7.18945H31.2383C31.0352 7.18945 30.8809 7.24219 30.7754 7.34766C30.6699 7.44922 30.6172 7.59961 30.6172 7.79883V9.86133C30.6172 10.0605 30.6699 10.2129 30.7754 10.3184C30.8809 10.4238 31.0352 10.4766 31.2383 10.4766H33.9746C34.1816 10.4766 34.3359 10.4238 34.4375 10.3184C34.5391 10.2129 34.5898 10.0605 34.5898 9.86133V7.81055ZM44.9727 5.66602C44.8008 6.20117 44.5996 6.72852 44.3691 7.24805C44.1387 7.76758 43.873 8.26367 43.5723 8.73633C43.2754 9.20508 42.9414 9.64062 42.5703 10.043C42.2031 10.4414 41.7949 10.7871 41.3457 11.0801C40.9004 11.3691 40.4141 11.5977 39.8867 11.7656C39.3633 11.9297 38.7949 12.0117 38.1816 12.0117C38.0762 12.0117 37.9766 11.9922 37.8828 11.9531C37.7891 11.9141 37.707 11.8613 37.6367 11.7949C37.5664 11.7246 37.5117 11.6445 37.4727 11.5547C37.4336 11.4609 37.4141 11.3613 37.4141 11.2559V5.66602H38.9375V10.4297C39.3086 10.4297 39.6641 10.3496 40.0039 10.1895C40.3477 10.0293 40.6719 9.81836 40.9766 9.55664C41.2812 9.29102 41.5625 8.99023 41.8203 8.6543C42.082 8.31836 42.3145 7.97461 42.5176 7.62305C42.7207 7.26758 42.8926 6.91992 43.0332 6.58008C43.1777 6.24023 43.2852 5.93555 43.3555 5.66602H44.9727ZM47.0703 4.36523H45.5469V2.98828H47.0703V4.36523ZM47.0703 12H45.5469V5.66602H47.0703V12ZM55.3496 7.76367C55.3496 7.97461 55.3125 8.20312 55.2383 8.44922C55.1641 8.69141 55.043 8.91797 54.875 9.12891C54.7109 9.33594 54.4941 9.50977 54.2246 9.65039C53.959 9.79102 53.6348 9.86133 53.252 9.86133H50.5039V8.41406H53.252C53.459 8.41406 53.6191 8.35156 53.7324 8.22656C53.8457 8.09766 53.9023 7.93945 53.9023 7.75195C53.9023 7.55273 53.8379 7.39648 53.709 7.2832C53.584 7.16992 53.4316 7.11328 53.252 7.11328H50.5039C50.2969 7.11328 50.1367 7.17773 50.0234 7.30664C49.9102 7.43164 49.8535 7.58789 49.8535 7.77539V9.90234C49.8535 10.1055 49.916 10.2637 50.041 10.377C50.1699 10.4902 50.3281 10.5469 50.5156 10.5469H53.252V12H50.5039C50.293 12 50.0645 11.9629 49.8184 11.8887C49.5762 11.8145 49.3496 11.6953 49.1387 11.5312C48.9316 11.3633 48.7578 11.1465 48.6172 10.8809C48.4766 10.6113 48.4062 10.2852 48.4062 9.90234V7.76367C48.4062 7.55273 48.4434 7.32617 48.5176 7.08398C48.5918 6.83789 48.7109 6.61133 48.875 6.4043C49.043 6.19336 49.2598 6.01758 49.5254 5.87695C49.7949 5.73633 50.1211 5.66602 50.5039 5.66602H53.252C53.4629 5.66602 53.6895 5.70312 53.9316 5.77734C54.1777 5.85156 54.4043 5.97266 54.6113 6.14062C54.8223 6.30469 54.998 6.52148 55.1387 6.79102C55.2793 7.05664 55.3496 7.38086 55.3496 7.76367ZM70.2266 12H68.6914V6.99609L65.9902 11.748C65.9238 11.8691 65.8301 11.9609 65.709 12.0234C65.5918 12.0859 65.4648 12.1172 65.3281 12.1172C65.1953 12.1172 65.0703 12.0859 64.9531 12.0234C64.8398 11.9609 64.75 11.8691 64.6836 11.748L61.9707 6.99609V12H60.4473V4.24805C60.4473 4.07227 60.498 3.91602 60.5996 3.7793C60.7051 3.64258 60.8418 3.55078 61.0098 3.50391C61.0918 3.48438 61.1738 3.47852 61.2559 3.48633C61.3379 3.49023 61.416 3.50781 61.4902 3.53906C61.5684 3.56641 61.6387 3.60742 61.7012 3.66211C61.7637 3.71289 61.8164 3.77539 61.8594 3.84961L65.3281 9.87891L68.7969 3.84961C68.8867 3.70117 69.0098 3.5957 69.166 3.5332C69.3262 3.4707 69.4922 3.46094 69.6641 3.50391C69.8281 3.55078 69.9629 3.64258 70.0684 3.7793C70.1738 3.91602 70.2266 4.07227 70.2266 4.24805V12ZM78.6758 9.86133C78.6758 10.123 78.6426 10.3594 78.5762 10.5703C78.5098 10.7773 78.4219 10.9609 78.3125 11.1211C78.2031 11.2773 78.0762 11.4121 77.9316 11.5254C77.7871 11.6348 77.6348 11.7246 77.4746 11.7949C77.3184 11.8652 77.1582 11.918 76.9941 11.9531C76.834 11.9844 76.6816 12 76.5371 12H73.7891C73.5781 12 73.3477 11.9629 73.0977 11.8887C72.8477 11.8145 72.6152 11.6934 72.4004 11.5254C72.1895 11.3535 72.0117 11.1328 71.8672 10.8633C71.7266 10.5898 71.6562 10.2559 71.6562 9.86133V7.79883C71.6562 7.4082 71.7266 7.07812 71.8672 6.80859C72.0117 6.53516 72.1895 6.31445 72.4004 6.14648C72.6152 5.97461 72.8477 5.85156 73.0977 5.77734C73.3477 5.70312 73.5781 5.66602 73.7891 5.66602H76.5371C76.9277 5.66602 77.2598 5.73633 77.5332 5.87695C77.8066 6.01758 78.0273 6.19531 78.1953 6.41016C78.3633 6.62109 78.4844 6.85156 78.5586 7.10156C78.6367 7.35156 78.6758 7.58398 78.6758 7.79883V9.86133ZM77.1523 7.81055C77.1523 7.59961 77.0996 7.44336 76.9941 7.3418C76.8887 7.24023 76.7363 7.18945 76.5371 7.18945H73.8008C73.5977 7.18945 73.4434 7.24219 73.3379 7.34766C73.2324 7.44922 73.1797 7.59961 73.1797 7.79883V9.86133C73.1797 10.0605 73.2324 10.2129 73.3379 10.3184C73.4434 10.4238 73.5977 10.4766 73.8008 10.4766H76.5371C76.7441 10.4766 76.8984 10.4238 77 10.3184C77.1016 10.2129 77.1523 10.0605 77.1523 9.86133V7.81055ZM86.9961 12H85.4727V8.48438C85.4727 8.28516 85.4375 8.10742 85.3672 7.95117C85.3008 7.79102 85.209 7.6543 85.0918 7.54102C84.9746 7.42773 84.8359 7.3418 84.6758 7.2832C84.5195 7.2207 84.3496 7.18945 84.166 7.18945H81.5V12H79.9766V6.42188C79.9766 6.31641 79.9961 6.21875 80.0352 6.12891C80.0742 6.03516 80.1289 5.95508 80.1992 5.88867C80.2695 5.81836 80.3516 5.76367 80.4453 5.72461C80.5391 5.68555 80.6387 5.66602 80.7441 5.66602H84.1777C84.3691 5.66602 84.5703 5.6875 84.7812 5.73047C84.9961 5.77344 85.207 5.84375 85.4141 5.94141C85.625 6.03516 85.8242 6.15625 86.0117 6.30469C86.2031 6.44922 86.3711 6.62695 86.5156 6.83789C86.6641 7.04492 86.7812 7.28516 86.8672 7.55859C86.9531 7.83203 86.9961 8.14062 86.9961 8.48438V12ZM95.2812 9.86133C95.2812 10.123 95.248 10.3594 95.1816 10.5703C95.1152 10.7773 95.0273 10.9609 94.918 11.1211C94.8086 11.2773 94.6816 11.4121 94.5371 11.5254C94.3926 11.6348 94.2402 11.7246 94.0801 11.7949C93.9238 11.8652 93.7637 11.918 93.5996 11.9531C93.4395 11.9844 93.2871 12 93.1426 12H90.3945C90.1328 12 89.8984 11.9668 89.6914 11.9004C89.4844 11.834 89.3008 11.7461 89.1406 11.6367C88.9844 11.5234 88.8496 11.3945 88.7363 11.25C88.627 11.1055 88.5371 10.9551 88.4668 10.7988C88.3965 10.6387 88.3438 10.4785 88.3086 10.3184C88.2773 10.1543 88.2617 10.002 88.2617 9.86133V7.79883C88.2617 7.4082 88.332 7.07812 88.4727 6.80859C88.6172 6.53516 88.7949 6.31445 89.0059 6.14648C89.2207 5.97461 89.4531 5.85156 89.7031 5.77734C89.9531 5.70312 90.1836 5.66602 90.3945 5.66602H93.1426V7.18945H90.4062C90.2031 7.18945 90.0488 7.24219 89.9434 7.34766C89.8379 7.44922 89.7852 7.59961 89.7852 7.79883V9.84961C89.7852 10.0566 89.8359 10.2129 89.9375 10.3184C90.043 10.4238 90.1953 10.4766 90.3945 10.4766H93.1426C93.3496 10.4766 93.5039 10.4238 93.6055 10.3184C93.707 10.2129 93.7578 10.0605 93.7578 9.86133V2.98828H95.2812V9.86133ZM103.273 9.90234C103.273 10.1133 103.236 10.3418 103.162 10.5879C103.088 10.8301 102.967 11.0566 102.799 11.2676C102.635 11.4746 102.418 11.6484 102.148 11.7891C101.883 11.9297 101.559 12 101.176 12H98.4277C98.2168 12 97.9883 11.9629 97.7422 11.8887C97.5 11.8145 97.2734 11.6953 97.0625 11.5312C96.8555 11.3633 96.6816 11.1465 96.541 10.8809C96.4004 10.6113 96.3301 10.2852 96.3301 9.90234C96.3301 9.69141 96.3672 9.46289 96.4414 9.2168C96.5156 8.9707 96.6348 8.74414 96.7988 8.53711C96.9668 8.32617 97.1836 8.15039 97.4492 8.00977C97.7188 7.86914 98.0449 7.79883 98.4277 7.79883H101.176V9.25195H98.4277C98.2207 9.25195 98.0605 9.31641 97.9473 9.44531C97.834 9.57031 97.7773 9.72656 97.7773 9.91406C97.7773 10.1133 97.8418 10.2695 97.9707 10.3828C98.1035 10.4922 98.2598 10.5469 98.4395 10.5469H101.176C101.383 10.5469 101.543 10.4844 101.656 10.3594C101.77 10.2344 101.826 10.0781 101.826 9.89062V7.76367C101.826 7.56445 101.764 7.40625 101.639 7.28906C101.518 7.17188 101.363 7.11328 101.176 7.11328H97.8301V5.66602H101.176C101.387 5.66602 101.613 5.70312 101.855 5.77734C102.102 5.85156 102.328 5.97266 102.535 6.14062C102.746 6.30469 102.922 6.52148 103.062 6.79102C103.203 7.05664 103.273 7.38086 103.273 7.76367V9.90234ZM111.559 12.6094C111.559 12.8711 111.525 13.1055 111.459 13.3125C111.393 13.5234 111.305 13.707 111.195 13.8633C111.086 14.0234 110.959 14.1582 110.814 14.2676C110.67 14.3809 110.518 14.4727 110.357 14.543C110.201 14.6133 110.043 14.6641 109.883 14.6953C109.723 14.7305 109.57 14.748 109.426 14.748H106.678V13.2246H109.426C109.629 13.2246 109.781 13.1719 109.883 13.0664C109.984 12.9609 110.035 12.8086 110.035 12.6094V5.66602H111.559V12.6094ZM109.426 12H106.678C106.459 12 106.225 11.9629 105.975 11.8887C105.729 11.8145 105.498 11.6934 105.283 11.5254C105.068 11.3535 104.891 11.1328 104.75 10.8633C104.609 10.5898 104.539 10.2559 104.539 9.86133V5.66602H106.062V9.86133C106.062 10.0605 106.115 10.2129 106.221 10.3184C106.326 10.4238 106.482 10.4766 106.689 10.4766H109.426V12Z" fill="#2C2C2C"/>
<path d="M9 14H108" stroke="#2C2C2C" stroke-width="1.525"/>
</svg>
